<svg width="576" height="35" viewBox="0 0 576 35" fill="none" xmlns="http://www.w3.org/2000/svg">
<path d="M3.376 3.696V26H0.464V3.696H3.376ZM16.883 8.144C19.0163 8.144 20.7443 8.79467 22.067 10.096C23.3897 11.376 24.051 13.232 24.051 15.664V26H21.171V16.08C21.171 14.3307 20.7337 12.9973 19.859 12.08C18.9843 11.1413 17.7897 10.672 16.275 10.672C14.739 10.672 13.5123 11.152 12.595 12.112C11.699 13.072 11.251 14.4693 11.251 16.304V26H8.339V8.464H11.251V10.96C11.827 10.064 12.6057 9.37067 13.587 8.88C14.5897 8.38933 15.6883 8.144 16.883 8.144ZM35.3358 23.312L40.7758 8.464H43.8798L36.9998 26H33.6078L26.7278 8.464H29.8638L35.3358 23.312ZM62.7453 16.56C62.7453 17.1147 62.7133 17.7013 62.6493 18.32H48.6333C48.7399 20.048 49.3266 21.4027 50.3933 22.384C51.4813 23.344 52.7933 23.824 54.3293 23.824C55.5879 23.824 56.6333 23.536 57.4653 22.96C58.3186 22.3627 58.9159 21.5733 59.2573 20.592H62.3933C61.9239 22.2773 60.9853 23.6533 59.5773 24.72C58.1693 25.7653 56.4199 26.288 54.3293 26.288C52.6653 26.288 51.1719 25.9147 49.8493 25.168C48.5479 24.4213 47.5239 23.3653 46.7773 22C46.0306 20.6133 45.6573 19.0133 45.6573 17.2C45.6573 15.3867 46.0199 13.7973 46.7453 12.432C47.4706 11.0667 48.4839 10.0213 49.7853 9.296C51.1079 8.54933 52.6226 8.176 54.3293 8.176C55.9933 8.176 57.4653 8.53867 58.7453 9.264C60.0253 9.98933 61.0066 10.992 61.6893 12.272C62.3933 13.5307 62.7453 14.96 62.7453 16.56ZM59.7373 15.952C59.7373 14.8427 59.4919 13.8933 59.0013 13.104C58.5106 12.2933 57.8386 11.6853 56.9853 11.28C56.1533 10.8533 55.2253 10.64 54.2013 10.64C52.7293 10.64 51.4706 11.1093 50.4253 12.048C49.4013 12.9867 48.8146 14.288 48.6653 15.952H59.7373ZM72.797 26.288C71.453 26.288 70.2477 26.064 69.181 25.616C68.1143 25.1467 67.2717 24.5067 66.653 23.696C66.0343 22.864 65.693 21.9147 65.629 20.848H68.637C68.7223 21.7227 69.1277 22.4373 69.853 22.992C70.5997 23.5467 71.5703 23.824 72.765 23.824C73.8743 23.824 74.749 23.5787 75.389 23.088C76.029 22.5973 76.349 21.9787 76.349 21.232C76.349 20.464 76.0077 19.8987 75.325 19.536C74.6423 19.152 73.5863 18.7787 72.157 18.416C70.8557 18.0747 69.789 17.7333 68.957 17.392C68.1463 17.0293 67.4423 16.5067 66.845 15.824C66.269 15.12 65.981 14.2027 65.981 13.072C65.981 12.176 66.2477 11.3547 66.781 10.608C67.3143 9.86133 68.0717 9.27467 69.053 8.848C70.0343 8.4 71.1543 8.176 72.413 8.176C74.3543 8.176 75.9223 8.66667 77.117 9.648C78.3117 10.6293 78.9517 11.9733 79.037 13.68H76.125C76.061 12.7627 75.6877 12.0267 75.005 11.472C74.3437 10.9173 73.4477 10.64 72.317 10.64C71.2717 10.64 70.4397 10.864 69.821 11.312C69.2023 11.76 68.893 12.3467 68.893 13.072C68.893 13.648 69.0743 14.128 69.437 14.512C69.821 14.8747 70.2903 15.1733 70.845 15.408C71.421 15.6213 72.2103 15.8667 73.213 16.144C74.4717 16.4853 75.4957 16.8267 76.285 17.168C77.0743 17.488 77.7463 17.9787 78.301 18.64C78.877 19.3013 79.1757 20.1653 79.197 21.232C79.197 22.192 78.9303 23.056 78.397 23.824C77.8637 24.592 77.1063 25.2 76.125 25.648C75.165 26.0747 74.0557 26.288 72.797 26.288ZM86.8598 10.864V21.2C86.8598 22.0533 87.0411 22.6613 87.4038 23.024C87.7664 23.3653 88.3958 23.536 89.2917 23.536H91.4358V26H88.8118C87.1904 26 85.9744 25.6267 85.1638 24.88C84.3531 24.1333 83.9478 22.9067 83.9478 21.2V10.864H81.6758V8.464H83.9478V4.048H86.8598V8.464H91.4358V10.864H86.8598ZM96.468 5.616C95.9133 5.616 95.444 5.424 95.06 5.04C94.676 4.656 94.484 4.18667 94.484 3.632C94.484 3.07733 94.676 2.608 95.06 2.224C95.444 1.84 95.9133 1.648 96.468 1.648C97.0013 1.648 97.4493 1.84 97.812 2.224C98.196 2.608 98.388 3.07733 98.388 3.632C98.388 4.18667 98.196 4.656 97.812 5.04C97.4493 5.424 97.0013 5.616 96.468 5.616ZM97.876 8.464V26H94.964V8.464H97.876ZM111.383 8.144C113.516 8.144 115.244 8.79467 116.567 10.096C117.89 11.376 118.551 13.232 118.551 15.664V26H115.671V16.08C115.671 14.3307 115.234 12.9973 114.359 12.08C113.484 11.1413 112.29 10.672 110.775 10.672C109.239 10.672 108.012 11.152 107.095 12.112C106.199 13.072 105.751 14.4693 105.751 16.304V26H102.839V8.464H105.751V10.96C106.327 10.064 107.106 9.37067 108.087 8.88C109.09 8.38933 110.188 8.144 111.383 8.144ZM130.54 8.176C132.054 8.176 133.377 8.50667 134.508 9.168C135.66 9.82933 136.513 10.6613 137.068 11.664V8.464H140.012V26.384C140.012 27.984 139.67 29.4027 138.988 30.64C138.305 31.8987 137.324 32.88 136.044 33.584C134.785 34.288 133.313 34.64 131.628 34.64C129.324 34.64 127.404 34.096 125.868 33.008C124.332 31.92 123.425 30.4373 123.148 28.56H126.028C126.348 29.6267 127.009 30.48 128.012 31.12C129.014 31.7813 130.22 32.112 131.628 32.112C133.228 32.112 134.529 31.6107 135.532 30.608C136.556 29.6053 137.068 28.1973 137.068 26.384V22.704C136.492 23.728 135.638 24.5813 134.508 25.264C133.377 25.9467 132.054 26.288 130.54 26.288C128.982 26.288 127.564 25.904 126.284 25.136C125.025 24.368 124.033 23.2907 123.308 21.904C122.582 20.5173 122.22 18.9387 122.22 17.168C122.22 15.376 122.582 13.808 123.308 12.464C124.033 11.0987 125.025 10.0427 126.284 9.296C127.564 8.54933 128.982 8.176 130.54 8.176ZM137.068 17.2C137.068 15.8773 136.801 14.7253 136.268 13.744C135.734 12.7627 135.009 12.016 134.092 11.504C133.196 10.9707 132.204 10.704 131.116 10.704C130.028 10.704 129.036 10.96 128.14 11.472C127.244 11.984 126.529 12.7307 125.996 13.712C125.462 14.6933 125.196 15.8453 125.196 17.168C125.196 18.512 125.462 19.6853 125.996 20.688C126.529 21.6693 127.244 22.4267 128.14 22.96C129.036 23.472 130.028 23.728 131.116 23.728C132.204 23.728 133.196 23.472 134.092 22.96C135.009 22.4267 135.734 21.6693 136.268 20.688C136.801 19.6853 137.068 18.5227 137.068 17.2ZM154.968 5.616C154.413 5.616 153.944 5.424 153.56 5.04C153.176 4.656 152.984 4.18667 152.984 3.632C152.984 3.07733 153.176 2.608 153.56 2.224C153.944 1.84 154.413 1.648 154.968 1.648C155.501 1.648 155.949 1.84 156.312 2.224C156.696 2.608 156.888 3.07733 156.888 3.632C156.888 4.18667 156.696 4.656 156.312 5.04C155.949 5.424 155.501 5.616 154.968 5.616ZM156.376 8.464V26H153.464V8.464H156.376ZM169.883 8.144C172.016 8.144 173.744 8.79467 175.067 10.096C176.39 11.376 177.051 13.232 177.051 15.664V26H174.171V16.08C174.171 14.3307 173.734 12.9973 172.859 12.08C171.984 11.1413 170.79 10.672 169.275 10.672C167.739 10.672 166.512 11.152 165.595 12.112C164.699 13.072 164.251 14.4693 164.251 16.304V26H161.339V8.464H164.251V10.96C164.827 10.064 165.606 9.37067 166.587 8.88C167.59 8.38933 168.688 8.144 169.883 8.144ZM193.891 10.864V21.2C193.891 22.0533 194.072 22.6613 194.435 23.024C194.798 23.3653 195.427 23.536 196.323 23.536H198.467V26H195.843C194.222 26 193.006 25.6267 192.195 24.88C191.384 24.1333 190.979 22.9067 190.979 21.2V10.864H188.707V8.464H190.979V4.048H193.891V8.464H198.467V10.864H193.891ZM209.643 26.288C208.001 26.288 206.507 25.9147 205.163 25.168C203.841 24.4213 202.795 23.3653 202.027 22C201.281 20.6133 200.907 19.0133 200.907 17.2C200.907 15.408 201.291 13.8293 202.059 12.464C202.849 11.0773 203.915 10.0213 205.259 9.296C206.603 8.54933 208.107 8.176 209.771 8.176C211.435 8.176 212.939 8.54933 214.283 9.296C215.627 10.0213 216.683 11.0667 217.451 12.432C218.241 13.7973 218.635 15.3867 218.635 17.2C218.635 19.0133 218.23 20.6133 217.419 22C216.63 23.3653 215.553 24.4213 214.187 25.168C212.822 25.9147 211.307 26.288 209.643 26.288ZM209.643 23.728C210.689 23.728 211.67 23.4827 212.587 22.992C213.505 22.5013 214.241 21.7653 214.795 20.784C215.371 19.8027 215.659 18.608 215.659 17.2C215.659 15.792 215.382 14.5973 214.827 13.616C214.273 12.6347 213.547 11.9093 212.651 11.44C211.755 10.9493 210.785 10.704 209.739 10.704C208.673 10.704 207.691 10.9493 206.795 11.44C205.921 11.9093 205.217 12.6347 204.683 13.616C204.15 14.5973 203.883 15.792 203.883 17.2C203.883 18.6293 204.139 19.8347 204.651 20.816C205.185 21.7973 205.889 22.5333 206.763 23.024C207.638 23.4933 208.598 23.728 209.643 23.728ZM243.552 8.144C244.917 8.144 246.133 8.432 247.2 9.008C248.267 9.56267 249.109 10.4053 249.728 11.536C250.347 12.6667 250.656 14.0427 250.656 15.664V26H247.776V16.08C247.776 14.3307 247.339 12.9973 246.464 12.08C245.611 11.1413 244.448 10.672 242.976 10.672C241.461 10.672 240.256 11.1627 239.36 12.144C238.464 13.104 238.016 14.5013 238.016 16.336V26H235.136V16.08C235.136 14.3307 234.699 12.9973 233.824 12.08C232.971 11.1413 231.808 10.672 230.336 10.672C228.821 10.672 227.616 11.1627 226.72 12.144C225.824 13.104 225.376 14.5013 225.376 16.336V26H222.464V8.464H225.376V10.992C225.952 10.0747 226.72 9.37067 227.68 8.88C228.661 8.38933 229.739 8.144 230.912 8.144C232.384 8.144 233.685 8.47467 234.816 9.136C235.947 9.79733 236.789 10.768 237.344 12.048C237.835 10.8107 238.645 9.85067 239.776 9.168C240.907 8.48533 242.165 8.144 243.552 8.144ZM263.081 26.288C261.438 26.288 259.945 25.9147 258.601 25.168C257.278 24.4213 256.233 23.3653 255.465 22C254.718 20.6133 254.345 19.0133 254.345 17.2C254.345 15.408 254.729 13.8293 255.497 12.464C256.286 11.0773 257.353 10.0213 258.697 9.296C260.041 8.54933 261.545 8.176 263.209 8.176C264.873 8.176 266.377 8.54933 267.721 9.296C269.065 10.0213 270.121 11.0667 270.889 12.432C271.678 13.7973 272.073 15.3867 272.073 17.2C272.073 19.0133 271.667 20.6133 270.857 22C270.067 23.3653 268.99 24.4213 267.625 25.168C266.259 25.9147 264.745 26.288 263.081 26.288ZM263.081 23.728C264.126 23.728 265.107 23.4827 266.025 22.992C266.942 22.5013 267.678 21.7653 268.233 20.784C268.809 19.8027 269.097 18.608 269.097 17.2C269.097 15.792 268.819 14.5973 268.265 13.616C267.71 12.6347 266.985 11.9093 266.089 11.44C265.193 10.9493 264.222 10.704 263.177 10.704C262.11 10.704 261.129 10.9493 260.233 11.44C259.358 11.9093 258.654 12.6347 258.121 13.616C257.587 14.5973 257.321 15.792 257.321 17.2C257.321 18.6293 257.577 19.8347 258.089 20.816C258.622 21.7973 259.326 22.5333 260.201 23.024C261.075 23.4933 262.035 23.728 263.081 23.728ZM278.814 11.312C279.326 10.3093 280.051 9.53067 280.99 8.976C281.95 8.42133 283.112 8.144 284.478 8.144V11.152H283.71C280.446 11.152 278.814 12.9227 278.814 16.464V26H275.902V8.464H278.814V11.312ZM290.751 11.312C291.263 10.3093 291.988 9.53067 292.927 8.976C293.887 8.42133 295.05 8.144 296.415 8.144V11.152H295.647C292.383 11.152 290.751 12.9227 290.751 16.464V26H287.839V8.464H290.751V11.312ZM307.425 26.288C305.782 26.288 304.289 25.9147 302.945 25.168C301.622 24.4213 300.577 23.3653 299.809 22C299.062 20.6133 298.689 19.0133 298.689 17.2C298.689 15.408 299.073 13.8293 299.841 12.464C300.63 11.0773 301.697 10.0213 303.041 9.296C304.385 8.54933 305.889 8.176 307.553 8.176C309.217 8.176 310.721 8.54933 312.065 9.296C313.409 10.0213 314.465 11.0667 315.233 12.432C316.022 13.7973 316.417 15.3867 316.417 17.2C316.417 19.0133 316.011 20.6133 315.201 22C314.411 23.3653 313.334 24.4213 311.969 25.168C310.603 25.9147 309.089 26.288 307.425 26.288ZM307.425 23.728C308.47 23.728 309.451 23.4827 310.369 22.992C311.286 22.5013 312.022 21.7653 312.577 20.784C313.153 19.8027 313.441 18.608 313.441 17.2C313.441 15.792 313.163 14.5973 312.609 13.616C312.054 12.6347 311.329 11.9093 310.433 11.44C309.537 10.9493 308.566 10.704 307.521 10.704C306.454 10.704 305.473 10.9493 304.577 11.44C303.702 11.9093 302.998 12.6347 302.465 13.616C301.931 14.5973 301.665 15.792 301.665 17.2C301.665 18.6293 301.921 19.8347 302.433 20.816C302.966 21.7973 303.67 22.5333 304.545 23.024C305.419 23.4933 306.379 23.728 307.425 23.728ZM343.605 8.464L338.133 26H335.125L330.901 12.08L326.677 26H323.669L318.165 8.464H321.141L325.173 23.184L329.525 8.464H332.501L336.757 23.216L340.725 8.464H343.605ZM347.967 0.527998L347.583 6.896H345.567L345.151 0.527998H347.967ZM357.797 26.288C356.453 26.288 355.248 26.064 354.181 25.616C353.114 25.1467 352.272 24.5067 351.653 23.696C351.034 22.864 350.693 21.9147 350.629 20.848H353.637C353.722 21.7227 354.128 22.4373 354.853 22.992C355.6 23.5467 356.57 23.824 357.765 23.824C358.874 23.824 359.749 23.5787 360.389 23.088C361.029 22.5973 361.349 21.9787 361.349 21.232C361.349 20.464 361.008 19.8987 360.325 19.536C359.642 19.152 358.586 18.7787 357.157 18.416C355.856 18.0747 354.789 17.7333 353.957 17.392C353.146 17.0293 352.442 16.5067 351.845 15.824C351.269 15.12 350.981 14.2027 350.981 13.072C350.981 12.176 351.248 11.3547 351.781 10.608C352.314 9.86133 353.072 9.27467 354.053 8.848C355.034 8.4 356.154 8.176 357.413 8.176C359.354 8.176 360.922 8.66667 362.117 9.648C363.312 10.6293 363.952 11.9733 364.037 13.68H361.125C361.061 12.7627 360.688 12.0267 360.005 11.472C359.344 10.9173 358.448 10.64 357.317 10.64C356.272 10.64 355.44 10.864 354.821 11.312C354.202 11.76 353.893 12.3467 353.893 13.072C353.893 13.648 354.074 14.128 354.437 14.512C354.821 14.8747 355.29 15.1733 355.845 15.408C356.421 15.6213 357.21 15.8667 358.213 16.144C359.472 16.4853 360.496 16.8267 361.285 17.168C362.074 17.488 362.746 17.9787 363.301 18.64C363.877 19.3013 364.176 20.1653 364.197 21.232C364.197 22.192 363.93 23.056 363.397 23.824C362.864 24.592 362.106 25.2 361.125 25.648C360.165 26.0747 359.056 26.288 357.797 26.288ZM380.391 10.864V21.2C380.391 22.0533 380.572 22.6613 380.935 23.024C381.298 23.3653 381.927 23.536 382.823 23.536H384.967V26H382.343C380.722 26 379.506 25.6267 378.695 24.88C377.884 24.1333 377.479 22.9067 377.479 21.2V10.864H375.207V8.464H377.479V4.048H380.391V8.464H384.967V10.864H380.391ZM387.407 17.168C387.407 15.376 387.77 13.808 388.495 12.464C389.221 11.0987 390.213 10.0427 391.471 9.296C392.751 8.54933 394.17 8.176 395.727 8.176C397.263 8.176 398.597 8.50667 399.727 9.168C400.858 9.82933 401.701 10.6613 402.255 11.664V8.464H405.199V26H402.255V22.736C401.679 23.76 400.815 24.6133 399.663 25.296C398.533 25.9573 397.21 26.288 395.695 26.288C394.138 26.288 392.73 25.904 391.471 25.136C390.213 24.368 389.221 23.2907 388.495 21.904C387.77 20.5173 387.407 18.9387 387.407 17.168ZM402.255 17.2C402.255 15.8773 401.989 14.7253 401.455 13.744C400.922 12.7627 400.197 12.016 399.279 11.504C398.383 10.9707 397.391 10.704 396.303 10.704C395.215 10.704 394.223 10.96 393.327 11.472C392.431 11.984 391.717 12.7307 391.183 13.712C390.65 14.6933 390.383 15.8453 390.383 17.168C390.383 18.512 390.65 19.6853 391.183 20.688C391.717 21.6693 392.431 22.4267 393.327 22.96C394.223 23.472 395.215 23.728 396.303 23.728C397.391 23.728 398.383 23.472 399.279 22.96C400.197 22.4267 400.922 21.6693 401.455 20.688C401.989 19.6853 402.255 18.5227 402.255 17.2ZM413.032 2.32V26H410.12V2.32H413.032ZM433.995 16.56C433.995 17.1147 433.963 17.7013 433.899 18.32H419.883C419.99 20.048 420.577 21.4027 421.643 22.384C422.731 23.344 424.043 23.824 425.579 23.824C426.838 23.824 427.883 23.536 428.715 22.96C429.569 22.3627 430.166 21.5733 430.507 20.592H433.643C433.174 22.2773 432.235 23.6533 430.827 24.72C429.419 25.7653 427.67 26.288 425.579 26.288C423.915 26.288 422.422 25.9147 421.099 25.168C419.798 24.4213 418.774 23.3653 418.027 22C417.281 20.6133 416.907 19.0133 416.907 17.2C416.907 15.3867 417.27 13.7973 417.995 12.432C418.721 11.0667 419.734 10.0213 421.035 9.296C422.358 8.54933 423.873 8.176 425.579 8.176C427.243 8.176 428.715 8.53867 429.995 9.264C431.275 9.98933 432.257 10.992 432.939 12.272C433.643 13.5307 433.995 14.96 433.995 16.56ZM430.987 15.952C430.987 14.8427 430.742 13.8933 430.251 13.104C429.761 12.2933 429.089 11.6853 428.235 11.28C427.403 10.8533 426.475 10.64 425.451 10.64C423.979 10.64 422.721 11.1093 421.675 12.048C420.651 12.9867 420.065 14.288 419.915 15.952H430.987ZM446.383 8.144C448.516 8.144 450.244 8.79467 451.567 10.096C452.89 11.376 453.551 13.232 453.551 15.664V26H450.671V16.08C450.671 14.3307 450.234 12.9973 449.359 12.08C448.484 11.1413 447.29 10.672 445.775 10.672C444.239 10.672 443.012 11.152 442.095 12.112C441.199 13.072 440.751 14.4693 440.751 16.304V26H437.839V8.464H440.751V10.96C441.327 10.064 442.106 9.37067 443.087 8.88C444.09 8.38933 445.188 8.144 446.383 8.144ZM461.86 10.864V21.2C461.86 22.0533 462.041 22.6613 462.404 23.024C462.766 23.3653 463.396 23.536 464.292 23.536H466.436V26H463.812C462.19 26 460.974 25.6267 460.164 24.88C459.353 24.1333 458.948 22.9067 458.948 21.2V10.864H456.676V8.464H458.948V4.048H461.86V8.464H466.436V10.864H461.86ZM472.972 21.968L469.388 30.576H467.436L469.772 21.968H472.972Z" fill="#02005C"/>
<path d="M488.391 10.864V21.2C488.391 22.0533 488.572 22.6613 488.935 23.024C489.298 23.3653 489.927 23.536 490.823 23.536H492.967V26H490.343C488.722 26 487.506 25.6267 486.695 24.88C485.884 24.1333 485.479 22.9067 485.479 21.2V10.864H483.207V8.464H485.479V4.048H488.391V8.464H492.967V10.864H488.391ZM504.143 26.288C502.501 26.288 501.007 25.9147 499.663 25.168C498.341 24.4213 497.295 23.3653 496.527 22C495.781 20.6133 495.407 19.0133 495.407 17.2C495.407 15.408 495.791 13.8293 496.559 12.464C497.349 11.0773 498.415 10.0213 499.759 9.296C501.103 8.54933 502.607 8.176 504.271 8.176C505.935 8.176 507.439 8.54933 508.783 9.296C510.127 10.0213 511.183 11.0667 511.951 12.432C512.741 13.7973 513.135 15.3867 513.135 17.2C513.135 19.0133 512.73 20.6133 511.919 22C511.13 23.3653 510.053 24.4213 508.687 25.168C507.322 25.9147 505.807 26.288 504.143 26.288ZM504.143 23.728C505.189 23.728 506.17 23.4827 507.087 22.992C508.005 22.5013 508.741 21.7653 509.295 20.784C509.871 19.8027 510.159 18.608 510.159 17.2C510.159 15.792 509.882 14.5973 509.327 13.616C508.773 12.6347 508.047 11.9093 507.151 11.44C506.255 10.9493 505.285 10.704 504.239 10.704C503.173 10.704 502.191 10.9493 501.295 11.44C500.421 11.9093 499.717 12.6347 499.183 13.616C498.65 14.5973 498.383 15.792 498.383 17.2C498.383 18.6293 498.639 19.8347 499.151 20.816C499.685 21.7973 500.389 22.5333 501.263 23.024C502.138 23.4933 503.098 23.728 504.143 23.728ZM515.876 17.168C515.876 15.376 516.239 13.808 516.964 12.464C517.689 11.0987 518.681 10.0427 519.94 9.296C521.22 8.54933 522.649 8.176 524.228 8.176C525.593 8.176 526.863 8.496 528.036 9.136C529.209 9.75467 530.105 10.576 530.724 11.6V2.32H533.668V26H530.724V22.704C530.148 23.7493 529.295 24.6133 528.164 25.296C527.033 25.9573 525.711 26.288 524.196 26.288C522.639 26.288 521.22 25.904 519.94 25.136C518.681 24.368 517.689 23.2907 516.964 21.904C516.239 20.5173 515.876 18.9387 515.876 17.168ZM530.724 17.2C530.724 15.8773 530.457 14.7253 529.924 13.744C529.391 12.7627 528.665 12.016 527.748 11.504C526.852 10.9707 525.86 10.704 524.772 10.704C523.684 10.704 522.692 10.96 521.796 11.472C520.9 11.984 520.185 12.7307 519.652 13.712C519.119 14.6933 518.852 15.8453 518.852 17.168C518.852 18.512 519.119 19.6853 519.652 20.688C520.185 21.6693 520.9 22.4267 521.796 22.96C522.692 23.472 523.684 23.728 524.772 23.728C525.86 23.728 526.852 23.472 527.748 22.96C528.665 22.4267 529.391 21.6693 529.924 20.688C530.457 19.6853 530.724 18.5227 530.724 17.2ZM537.501 17.168C537.501 15.376 537.864 13.808 538.589 12.464C539.314 11.0987 540.306 10.0427 541.565 9.296C542.845 8.54933 544.264 8.176 545.821 8.176C547.357 8.176 548.69 8.50667 549.821 9.168C550.952 9.82933 551.794 10.6613 552.349 11.664V8.464H555.293V26H552.349V22.736C551.773 23.76 550.909 24.6133 549.757 25.296C548.626 25.9573 547.304 26.288 545.789 26.288C544.232 26.288 542.824 25.904 541.565 25.136C540.306 24.368 539.314 23.2907 538.589 21.904C537.864 20.5173 537.501 18.9387 537.501 17.168ZM552.349 17.2C552.349 15.8773 552.082 14.7253 551.549 13.744C551.016 12.7627 550.29 12.016 549.373 11.504C548.477 10.9707 547.485 10.704 546.397 10.704C545.309 10.704 544.317 10.96 543.421 11.472C542.525 11.984 541.81 12.7307 541.277 13.712C540.744 14.6933 540.477 15.8453 540.477 17.168C540.477 18.512 540.744 19.6853 541.277 20.688C541.81 21.6693 542.525 22.4267 543.421 22.96C544.317 23.472 545.309 23.728 546.397 23.728C547.485 23.728 548.477 23.472 549.373 22.96C550.29 22.4267 551.016 21.6693 551.549 20.688C552.082 19.6853 552.349 18.5227 552.349 17.2ZM575.318 8.464L564.758 34.256H561.75L565.206 25.808L558.134 8.464H561.366L566.87 22.672L572.31 8.464H575.318Z" fill="black"/>
</svg>
