<svg preserveAspectRatio="none" width="23" height="23" viewBox="0 0 23 23" fill="none" xmlns="http://www.w3.org/2000/svg">
<path vector-effect="non-scaling-stroke" d="M17.25 9.58333L13.4167 5.75M2.39581 20.6042L5.63916 20.2438C6.03542 20.1998 6.23355 20.1778 6.41874 20.1178C6.58304 20.0646 6.7394 19.9895 6.88357 19.8944C7.04607 19.7872 7.18704 19.6463 7.46896 19.3643L20.125 6.70833C21.1835 5.64979 21.1835 3.93354 20.125 2.875C19.0665 1.81645 17.3502 1.81645 16.2917 2.875L3.63563 15.531C3.35371 15.8129 3.21274 15.9539 3.10558 16.1164C3.01051 16.2606 2.93536 16.4169 2.88217 16.5812C2.82222 16.7664 2.80021 16.9646 2.75618 17.3608L2.39581 20.6042Z" stroke="#4E5E61" stroke-width="2" stroke-linecap="round" stroke-linejoin="round"/>
</svg>
