<svg width="189" height="31" viewBox="0 0 189 31" fill="none" xmlns="http://www.w3.org/2000/svg">
<path d="M0.8 15C0.8 10.4133 1.68 6.8 3.44 4.16C5.22667 1.52 8.09333 0.199997 12.04 0.199997C15.9867 0.199997 18.84 1.52 20.6 4.16C22.3867 6.8 23.28 10.4133 23.28 15C23.28 19.64 22.3867 23.28 20.6 25.92C18.84 28.56 15.9867 29.88 12.04 29.88C8.09333 29.88 5.22667 28.56 3.44 25.92C1.68 23.28 0.8 19.64 0.8 15ZM16.56 15C16.56 12.3067 16.2667 10.24 15.68 8.8C15.0933 7.33333 13.88 6.6 12.04 6.6C10.2 6.6 8.98667 7.33333 8.4 8.8C7.81333 10.24 7.52 12.3067 7.52 15C7.52 16.8133 7.62667 18.32 7.84 19.52C8.05333 20.6933 8.48 21.6533 9.12 22.4C9.78667 23.12 10.76 23.48 12.04 23.48C13.32 23.48 14.28 23.12 14.92 22.4C15.5867 21.6533 16.0267 20.6933 16.24 19.52C16.4533 18.32 16.56 16.8133 16.56 15ZM40.7738 30L36.4938 23.8L32.8938 30H25.4938L32.8538 18.6L25.2938 7.68H32.9738L37.2538 13.84L40.8538 7.68H48.2538L40.7738 18.92L48.4538 30H40.7738Z" fill="#414141"/>
<path d="M71.2894 1.92V7.4H63.8494V30H57.0094V7.4H49.5694V1.92H71.2894ZM73.3622 18.8C73.3622 16.5067 73.7889 14.4933 74.6422 12.76C75.5222 11.0267 76.7089 9.69333 78.2022 8.76C79.6955 7.82667 81.3622 7.36 83.2022 7.36C84.7755 7.36 86.1489 7.68 87.3222 8.32C88.5222 8.96 89.4422 9.8 90.0822 10.84V7.68H96.9222V30H90.0822V26.84C89.4155 27.88 88.4822 28.72 87.2822 29.36C86.1089 30 84.7355 30.32 83.1622 30.32C81.3489 30.32 79.6955 29.8533 78.2022 28.92C76.7089 27.96 75.5222 26.6133 74.6422 24.88C73.7889 23.12 73.3622 21.0933 73.3622 18.8ZM90.0822 18.84C90.0822 17.1333 89.6022 15.7867 88.6422 14.8C87.7089 13.8133 86.5622 13.32 85.2022 13.32C83.8422 13.32 82.6822 13.8133 81.7222 14.8C80.7889 15.76 80.3222 17.0933 80.3222 18.8C80.3222 20.5067 80.7889 21.8667 81.7222 22.88C82.6822 23.8667 83.8422 24.36 85.2022 24.36C86.5622 24.36 87.7089 23.8667 88.6422 22.88C89.6022 21.8933 90.0822 20.5467 90.0822 18.84ZM108.711 0.4V30H101.871V0.4H108.711ZM134.707 18.48C134.707 19.12 134.668 19.7867 134.588 20.48H119.108C119.214 21.8667 119.654 22.9333 120.428 23.68C121.228 24.4 122.201 24.76 123.348 24.76C125.054 24.76 126.241 24.04 126.908 22.6H134.188C133.814 24.0667 133.134 25.3867 132.148 26.56C131.188 27.7333 129.974 28.6533 128.508 29.32C127.041 29.9867 125.401 30.32 123.588 30.32C121.401 30.32 119.454 29.8533 117.748 28.92C116.041 27.9867 114.708 26.6533 113.748 24.92C112.788 23.1867 112.308 21.16 112.308 18.84C112.308 16.52 112.774 14.4933 113.708 12.76C114.668 11.0267 116.001 9.69333 117.708 8.76C119.414 7.82667 121.374 7.36 123.588 7.36C125.748 7.36 127.668 7.81333 129.348 8.72C131.028 9.62667 132.334 10.92 133.268 12.6C134.228 14.28 134.707 16.24 134.707 18.48ZM127.708 16.68C127.708 15.5067 127.308 14.5733 126.508 13.88C125.708 13.1867 124.708 12.84 123.508 12.84C122.361 12.84 121.388 13.1733 120.588 13.84C119.814 14.5067 119.334 15.4533 119.148 16.68H127.708ZM151.916 7.44C154.529 7.44 156.609 8.29333 158.156 10C159.729 11.68 160.516 14 160.516 16.96V30H153.716V17.88C153.716 16.3867 153.329 15.2267 152.556 14.4C151.783 13.5733 150.743 13.16 149.436 13.16C148.129 13.16 147.089 13.5733 146.316 14.4C145.543 15.2267 145.156 16.3867 145.156 17.88V30H138.316V7.68H145.156V10.64C145.849 9.65333 146.783 8.88 147.956 8.32C149.129 7.73333 150.449 7.44 151.916 7.44ZM177.709 24.2V30H174.229C171.749 30 169.816 29.4 168.429 28.2C167.042 26.9733 166.349 24.9867 166.349 22.24V13.36H163.629V7.68H166.349V2.24H173.189V7.68H177.669V13.36H173.189V22.32C173.189 22.9867 173.349 23.4667 173.669 23.76C173.989 24.0533 174.522 24.2 175.269 24.2H177.709ZM184.719 30.32C183.519 30.32 182.532 29.9733 181.759 29.28C181.012 28.56 180.639 27.68 180.639 26.64C180.639 25.5733 181.012 24.68 181.759 23.96C182.532 23.24 183.519 22.88 184.719 22.88C185.892 22.88 186.852 23.24 187.599 23.96C188.372 24.68 188.759 25.5733 188.759 26.64C188.759 27.68 188.372 28.56 187.599 29.28C186.852 29.9733 185.892 30.32 184.719 30.32Z" fill="black"/>
</svg>
